<svg xmlns="http://www.w3.org/2000/svg" xmlns:xlink="http://www.w3.org/1999/xlink" viewBox="0 0 207.91 207.91"><defs><style>.cls-1{fill:#fff;}.cls-2{fill:url(#linear-gradient);}.cls-3{fill:url(#linear-gradient-2);}</style><linearGradient id="linear-gradient" x1="45.89" y1="17.41" x2="102.91" y2="101.3" gradientTransform="translate(8.74 17.85) rotate(0.95)" gradientUnits="userSpaceOnUse"><stop offset="0" stop-color="#a7dcdf"/><stop offset="1" stop-color="#5fc8d7"/></linearGradient><linearGradient id="linear-gradient-2" x1="18.05" y1="161.49" x2="140.44" y2="98.48" xlink:href="#linear-gradient"/></defs><title>Asset 3</title><g id="Layer_2" data-name="Layer 2"><g id="login"><circle class="cls-1" cx="103.95" cy="103.95" r="103.95"/><path class="cls-2" d="M126,115.29c-.28.45-.53.92-.79,1.39s-.61.85-.89,1.3-.5.65-.74,1-.75.86-1.11,1.3-.67.65-1,1-.7.64-1,1-.89.67-1.31,1-.65.44-1,.67c-.48.27-.93.57-1.38.87s-.7.33-1,.52l-.2.12c-.43.18-.85.4-1.27.61s-1,.37-1.56.6-.73.23-1.1.35c-.54.12-1.08.28-1.63.44s-1,.15-1.45.26-.88.11-1.33.18-1.14.06-1.71.11-.88,0-1.33,0-1-.06-1.45-.07-1.17-.18-1.76-.23-.87-.18-1.31-.25-1-.26-1.48-.37-1.15-.41-1.74-.57c-.41-.17-.82-.34-1.23-.49s-.89-.42-1.34-.62-1-.59-1.52-.85c-.35-.23-.69-.46-1-.67s-.83-.6-1.25-.89-.83-.73-1.26-1.07c-.28-.27-.56-.54-.85-.8-.37-.43-.77-.83-1.18-1.22s-.58-.75-.89-1.1-.56-.76-.85-1.13-.56-.93-.87-1.37c-.09-.18-.16-.36-.26-.53s-.21-.33-.31-.5c-.22-.49-.47-1-.73-1.46s-.33-.88-.53-1.31-.31-.89-.48-1.33-.26-1.09-.44-1.64c-.08-.38-.15-.76-.25-1.14-.06-.55-.16-1.09-.26-1.63s-.06-1-.12-1.53,0-.83,0-1.24c0-.58.05-1.16.06-1.74s.13-1,.16-1.47.15-.86.21-1.3.29-1.19.41-1.79.32-1,.45-1.46.31-.83.46-1.25.49-1.08.71-1.62.48-.85.69-1.28.46-.75.68-1.14.67-.93,1-1.41.58-.69.84-1,.65-.73,1-1.1.83-.76,1.21-1.17c.3-.25.59-.5.87-.76.46-.33.89-.68,1.31-1s.8-.5,1.18-.77l.21-.1c.34-.19.66-.42,1-.62.49-.23,1-.46,1.45-.73s.72-.31,1.08-.47c.52-.17,1-.38,1.56-.59s.92-.24,1.37-.4.9-.22,1.35-.34,1.13-.16,1.69-.28c.41,0,.81-.07,1.22-.13s1-.05,1.57-.09,1.1.05,1.65,0,.82.07,1.23.1,1.1.16,1.65.22,1.09.26,1.64.36A24,24,0,1,0,121.72,34a23.91,23.91,0,0,0-4.42-.92,24.11,24.11,0,0,0-4.41-.65,23.88,23.88,0,0,0-4.8-.38,23.7,23.7,0,0,0-4.34-.06,24.15,24.15,0,0,0-4.38.18,24.11,24.11,0,0,0-4.67.51,23.71,23.71,0,0,0-4.12.72,23.71,23.71,0,0,0-4.35,1A23.7,23.7,0,0,0,82,35.73a23.84,23.84,0,0,0-3.91,1.43A23.92,23.92,0,0,0,73.85,39a24.32,24.32,0,0,0-2.73,1.3c-.34.19-.66.42-1,.62-.53.25-1,.49-1.56.78a23.6,23.6,0,0,0-2.25,1.46l-.21.1a24.45,24.45,0,0,0-3.44,2.39,23.68,23.68,0,0,0-3.3,2.52,24,24,0,0,0-3.54,3.08,23.58,23.58,0,0,0-3,2.93,23.91,23.91,0,0,0-3,3.27,24,24,0,0,0-2.83,3.58,23.76,23.76,0,0,0-2.42,3.46,23.58,23.58,0,0,0-2.42,4,24,24,0,0,0-2.12,4.06,24.32,24.32,0,0,0-1.77,3.94A24.15,24.15,0,0,0,36.66,81a24,24,0,0,0-1.35,4.5,24,24,0,0,0-1,4.26,24.28,24.28,0,0,0-.8,4.75,23.92,23.92,0,0,0-.45,4.57,24,24,0,0,0-.18,4.28A23.9,23.9,0,0,0,33,108.1a23.71,23.71,0,0,0,.4,4.37,24,24,0,0,0,.61,4.2,23.84,23.84,0,0,0,1,4.6,23.91,23.91,0,0,0,1.13,4,24.09,24.09,0,0,0,1.08,3.36C62.79,152.65,112.55,148.31,126,115.29Z"/><path class="cls-3" d="M172,105a24,24,0,0,0-44.18,6c-.2.52-.37,1.05-.54,1.59s-.47,1-.66,1.53c-.19.36-.38.73-.55,1.1l0,0c-13.48,33-63.24,37.36-88.81,13.34.11.27.22.55.35.82a24,24,0,0,0,1.71,4.06,23.62,23.62,0,0,0,1.51,3.28c.1.17.21.32.31.5.31.7.66,1.4,1,2.08s.81,1.34,1.25,2c.09.17.16.35.26.52a23.7,23.7,0,0,0,2,3,24,24,0,0,0,2.6,3.56,23.73,23.73,0,0,0,2.85,3.38,23.51,23.51,0,0,0,2.84,3A23.39,23.39,0,0,0,57.39,158a23.62,23.62,0,0,0,3.28,2.69,23.8,23.8,0,0,0,3.54,2.6,24,24,0,0,0,4,2.53,24,24,0,0,0,3.75,2.06,24.13,24.13,0,0,0,4.15,2,24.31,24.31,0,0,0,4.48,1.77A24.43,24.43,0,0,0,84.74,173a24.08,24.08,0,0,0,4.55,1.17,24.06,24.06,0,0,0,4.74.89,24.11,24.11,0,0,0,4.29.52,24.13,24.13,0,0,0,4.57.29,24,24,0,0,0,4.66,0,23.93,23.93,0,0,0,4.21-.29,23.46,23.46,0,0,0,4.53-.58,23.68,23.68,0,0,0,4.33-.85,23.78,23.78,0,0,0,4-1,23.89,23.89,0,0,0,4.46-1.44,24.27,24.27,0,0,0,3.86-1.53,24.13,24.13,0,0,0,3.82-1.71l.19-.12a23.81,23.81,0,0,0,2.41-1.18c.51-.29,1-.61,1.47-.93s.7-.33,1-.52a24.25,24.25,0,0,0,2.52-1.67,24,24,0,0,0,3.8-2.68,24,24,0,0,0,3.24-2.62,24.23,24.23,0,0,0,3.28-3,23.9,23.9,0,0,0,3.11-3.21,23.82,23.82,0,0,0,2.74-3.15,23.92,23.92,0,0,0,2.84-3.73,23.9,23.9,0,0,0,2.42-3.66,23.89,23.89,0,0,0,2.19-3.75,24.19,24.19,0,0,0,2.15-4.31,24,24,0,0,0,1.71-4.11,23.91,23.91,0,0,0,1.49-4.25A24,24,0,0,0,172,105Z"/></g></g></svg>