<?xml version="1.0" encoding="utf-8"?>
<!-- Generator: Adobe Illustrator 20.0.0, SVG Export Plug-In . SVG Version: 6.00 Build 0)  -->
<svg version="1.1" id="Layer_1" xmlns="http://www.w3.org/2000/svg" xmlns:xlink="http://www.w3.org/1999/xlink" x="0px" y="0px"
	 viewBox="0 0 118 118" style="enable-background:new 0 0 118 118;" xml:space="preserve">
<style type="text/css">
	.st0{fill:#66DAA4;}
	.st1{fill:#AEDFE6;}
</style>
<title>Asset 1</title>
<g>
	<g id="Layer_2">
		<g id="teacher_hp">
			<g>
				<path class="st0" d="M101.8,58c0-24.1-19.5-43.6-43.6-43.6v47.1L93.9,83C98.9,76,101.8,67.3,101.8,58z"/>
			</g>
			<path class="st1" d="M59.6,0.3c2.5,0,5,0,7.5,0c2.1,0,2.9,0.9,2.9,3.2s-0.8,3.1-2.9,3.2h-0.4c-4.4,0.1-5.1,1-4.2,5.4
				c0.4,0.7,1.1,1.2,1.9,1.3c7.4,0.8,14.4,3.4,20.5,7.6c0.4,0.3,0.8,0.5,1.2,0.8c3.1,2.2,3.1,2.2,5.9-0.5c1.7-1.7,3-1.7,4.6-0.2
				s1.6,3-0.1,4.8c-2.7,2.8-2.7,2.8-0.4,5.9c14.7,20.3,10,48.7-10.3,63.3c-8,5.8-17.7,8.8-27.6,8.6c-22.1-0.2-41.4-17.9-43.8-40
				c-1.6-15,3-27.8,13.8-38.2c6.9-6.7,15.8-10.9,25.4-12c1.6-0.2,2.3-0.8,2.2-2.5C56,7,56.1,7,52,6.8c-2-0.1-2.8-0.9-2.8-3.1
				c0-2.3,0.7-3.3,2.8-3.3C54.5,0.3,57,0.3,59.6,0.3z M20.8,58.1c0.1,22,17.3,39.3,39,39.2c21.2-0.1,38.7-17.6,38.7-38.5
				c0.1-21.5-17.3-39-38.8-39.1c-0.1,0-0.1,0-0.2,0C38.2,19.8,20.7,37.3,20.8,58.1z"/>
			<g>
				<path d="M49,54.7c0.6,0.5,1.1,1.1,1.4,1.9c0.3,0.8,0.4,1.6,0.4,2.6v0.6c0,1.3-0.2,2.5-0.5,3.6c-0.3,1.1-0.9,1.9-1.8,2.6
					c-0.9,0.7-2.2,1-3.9,1h-0.2v-1.4h0.2c1.6,0,2.8-0.4,3.4-1.2c0.7-0.8,1-1.8,1.1-3.1c-0.4,0.4-0.8,0.7-1.2,1
					c-0.5,0.2-1,0.4-1.5,0.4c-0.8,0-1.5-0.2-2-0.6s-1-0.9-1.2-1.6c-0.3-0.7-0.4-1.4-0.4-2.1c0-0.8,0.2-1.6,0.5-2.3
					c0.3-0.7,0.8-1.2,1.4-1.6c0.6-0.4,1.3-0.6,2.2-0.6C47.6,53.9,48.4,54.2,49,54.7z M48.1,60.8c0.5-0.3,0.8-0.8,1-1.3v-0.6
					c0-0.8-0.1-1.4-0.3-2c-0.2-0.6-0.5-1-0.9-1.3c-0.4-0.3-0.8-0.4-1.2-0.4c-0.5,0-0.9,0.1-1.3,0.4c-0.4,0.3-0.6,0.6-0.8,1.1
					s-0.3,1-0.3,1.6c0,0.5,0.1,1,0.3,1.5c0.2,0.5,0.4,0.8,0.8,1.1c0.4,0.3,0.8,0.4,1.3,0.4C47.1,61.3,47.6,61.2,48.1,60.8z"/>
				<path d="M55.3,65.4c0.2,0.2,0.3,0.4,0.3,0.7c0,0.3-0.1,0.5-0.3,0.7c-0.2,0.2-0.4,0.3-0.8,0.3c-0.3,0-0.6-0.1-0.7-0.3
					s-0.3-0.4-0.3-0.7c0-0.3,0.1-0.5,0.3-0.7s0.4-0.3,0.7-0.3C54.8,65.2,55.1,65.2,55.3,65.4z M55.3,57.6c0.2,0.2,0.3,0.4,0.3,0.7
					c0,0.3-0.1,0.5-0.3,0.7c-0.2,0.2-0.4,0.3-0.8,0.3c-0.3,0-0.6-0.1-0.7-0.3c-0.2-0.2-0.3-0.4-0.3-0.7c0-0.3,0.1-0.5,0.3-0.7
					c0.2-0.2,0.4-0.3,0.7-0.3C54.8,57.3,55.1,57.4,55.3,57.6z"/>
				<path d="M65.2,65.9c-0.7,0.9-1.7,1.3-3,1.3c-1.3,0-2.3-0.4-3-1.3s-1.1-2.3-1.1-4.3v-2c0-2,0.3-3.4,1-4.3s1.7-1.3,3-1.3
					c1.3,0,2.3,0.4,3,1.3s1,2.3,1,4.3v2C66.2,63.5,65.9,65,65.2,65.9z M64,56.2c-0.4-0.6-1-0.9-1.8-0.9c-0.8,0-1.4,0.3-1.8,0.9
					c-0.4,0.6-0.6,1.6-0.6,3.1v2.5c0,1.4,0.2,2.4,0.6,3.1s1,1,1.8,1c0.8,0,1.4-0.3,1.8-1c0.4-0.7,0.6-1.7,0.6-3.1v-2.5
					C64.6,57.8,64.4,56.8,64,56.2z"/>
				<path d="M75.7,65.9c-0.7,0.9-1.7,1.3-3,1.3c-1.3,0-2.3-0.4-3-1.3s-1.1-2.3-1.1-4.3v-2c0-2,0.3-3.4,1-4.3s1.7-1.3,3-1.3
					c1.3,0,2.3,0.4,3,1.3s1,2.3,1,4.3v2C76.8,63.5,76.4,65,75.7,65.9z M74.5,56.2c-0.4-0.6-1-0.9-1.8-0.9c-0.8,0-1.4,0.3-1.8,0.9
					c-0.4,0.6-0.6,1.6-0.6,3.1v2.5c0,1.4,0.2,2.4,0.6,3.1s1,1,1.8,1c0.8,0,1.4-0.3,1.8-1c0.4-0.7,0.6-1.7,0.6-3.1v-2.5
					C75.1,57.8,74.9,56.8,74.5,56.2z"/>
			</g>
		</g>
	</g>
</g>
</svg>
