<?xml version="1.0" encoding="utf-8"?>
<!-- Generator: Adobe Illustrator 20.0.0, SVG Export Plug-In . SVG Version: 6.00 Build 0)  -->
<svg version="1.1" id="Layer_1" xmlns="http://www.w3.org/2000/svg" xmlns:xlink="http://www.w3.org/1999/xlink" x="0px" y="0px"
	 viewBox="0 0 118 118" style="enable-background:new 0 0 118 118;" xml:space="preserve">
<style type="text/css">
	.st0{fill:#F2F2F2;}
	.st1{fill:#E2E2E2;}
</style>
<title>Asset 1</title>
<g>
	<g id="Layer_2">
		<g id="teacher_hp">
			<circle class="st0" cx="58.2" cy="58" r="43.6"/>
			<path class="st1" d="M59.6,0.3c2.5,0,5,0,7.5,0c2.1,0,2.9,0.9,2.9,3.2s-0.8,3.1-2.9,3.2h-0.4c-4.4,0.1-5.1,1-4.2,5.4
				c0.4,0.7,1.1,1.2,1.9,1.3c7.4,0.8,14.4,3.4,20.5,7.6c0.4,0.3,0.8,0.5,1.2,0.8c3.1,2.2,3.1,2.2,5.9-0.5c1.7-1.7,3-1.7,4.6-0.2
				s1.6,3-0.1,4.8c-2.7,2.8-2.7,2.8-0.4,5.9c14.7,20.3,10,48.7-10.3,63.3c-8,5.8-17.7,8.8-27.6,8.6c-22.1-0.2-41.4-17.9-43.8-40
				c-1.6-15,3-27.8,13.8-38.2c6.9-6.7,15.8-10.9,25.4-12c1.6-0.2,2.3-0.8,2.2-2.5C56,7,56.1,7,52,6.8c-2-0.1-2.8-0.9-2.8-3.1
				c0-2.3,0.7-3.3,2.8-3.3C54.5,0.3,57,0.3,59.6,0.3z M20.8,58.1c0.1,22,17.3,39.3,39,39.2c21.2-0.1,38.7-17.6,38.7-38.5
				c0.1-21.5-17.3-39-38.8-39.1c-0.1,0-0.1,0-0.2,0C38.2,19.8,20.7,37.3,20.8,58.1z"/>
		</g>
	</g>
</g>
</svg>
